<svg id="Capa_1" data-name="Capa 1" xmlns="http://www.w3.org/2000/svg" width="23.39" height="23.39" viewBox="0 0 23.39 23.39">
  <defs>
    <style>
      .cls-1 {
        fill: #a79545;
      }
    </style>
  </defs>
  <title>iconos Diego</title>
  <path class="cls-1" d="M11.69,0a11.7,11.7,0,1,0,11.7,11.69A11.7,11.7,0,0,0,11.69,0Zm2.6,9.7-.14,1.76h-1.8v6.11H10.07V11.46H8.86V9.7h1.21V8.52a3.22,3.22,0,0,1,.39-1.82,2.16,2.16,0,0,1,1.89-.88A8,8,0,0,1,14.53,6l-.3,1.8a4.32,4.32,0,0,0-1-.14c-.48,0-.9.17-.9.64V9.7Z"/>
</svg>
