<?xml version="1.0" encoding="utf-8"?>
<!-- Generator: Adobe Illustrator 22.1.0, SVG Export Plug-In . SVG Version: 6.00 Build 0)  -->
<svg version="1.1" id="Capa_1" xmlns="http://www.w3.org/2000/svg" xmlns:xlink="http://www.w3.org/1999/xlink" x="0px" y="0px"
	 width="15.5px" height="15.5px" viewBox="0 0 15.5 15.5" style="enable-background:new 0 0 15.5 15.5;" xml:space="preserve">
<style type="text/css">
	.st0{fill:#A79545;}
</style>
<title>iconos Diego</title>
<g transform="translate(0.000000,720.000000) scale(0.100000,-0.100000)">
	<path class="st0" d="M74.4,7199.9c-12.9-0.8-26.4-5.3-37-12.2c-11.3-7.3-20.2-17.3-26-28.8c-3.2-6.3-5.1-12.3-6.5-19.6
		c-1-5.5-1.2-13.8-0.5-20.2c1-8.6,4.2-18.9,8.6-27.3l1.3-2.4l-2.9-8.4c-1.6-4.6-4.6-13.1-6.5-18.8c-2-5.7-3.6-10.5-3.6-10.8
		c0-0.2,0.3-0.5,0.7-0.6c0.6-0.2,0.7-0.3,0.6-1c-0.1-0.7-0.1-0.8,0.4-0.6c1,0.3,22.3,6.8,31.3,9.6c4.7,1.4,8.8,2.6,9,2.6
		c0.2,0,1.2-0.4,2.3-0.9c8.7-4.2,18-6.7,27.9-7.6c3.9-0.3,11.9-0.2,15.7,0.4c22.7,3,42.1,15.1,54,33.7c3.9,6.1,7.6,14.5,9.6,21.8
		c1.9,7,2.8,15.8,2.3,22.5c-1.3,17.9-8.5,33.8-21,46.3c-12.1,12.1-27.6,19.6-45.2,21.8C86.2,7199.8,77.2,7200.1,74.4,7199.9z
		 M83.7,7184.2c8.5-0.7,15.5-2.5,22.8-5.9c10-4.7,18.3-11.8,24.5-20.8c4.8-6.9,7.7-14.3,8.8-22.5c0.5-3.9,0.5-11.7,0-15.6
		c-3.9-27.7-27.7-49.1-56.5-50.9c-10.2-0.6-19.6,1-28.9,4.9c-2.5,1.1-6.8,3.3-8.1,4.2c-0.4,0.3-0.9,0.6-1.2,0.6
		c-0.2,0-5.3-1.5-11.2-3.3c-6-1.8-10.9-3.3-10.9-3.3c0,0,1.5,4.5,3.4,9.9c1.9,5.4,3.4,10.1,3.4,10.5s-0.4,1.2-1,2.1
		c-10,13.7-13.2,32.7-8.4,48.8c1.1,3.5,2,5.6,3.7,8.9c4.8,9,12,16.8,21,22.5C56.5,7181.7,70.6,7185.3,83.7,7184.2z"/>
	<path class="st0" d="M52.2,7163.1c-0.5-0.2-1.3-0.5-1.8-0.8c-1.2-0.7-4.7-4.4-5.8-6c-3.5-5.3-4.3-12.3-2.2-19.1
		c1.6-5.2,3.6-9.1,7.1-14.4c4.5-6.7,7.5-10.3,12.2-15c7.1-7,13-10.9,22.1-14.6c6.7-2.7,11.7-4.2,14.5-4.5c1.9-0.2,6.1,0.5,8.6,1.3
		c3.4,1.2,7.4,3.9,8.9,6c1.5,2.2,3.1,7.2,3.3,10.5l0.1,2.2l-0.7,0.8c-0.5,0.6-2.7,1.8-7,4c-10.3,5.3-11.6,5.8-13.2,5
		c-0.4-0.2-1.9-1.7-3.4-3.3c-4.2-4.7-5.1-5.6-5.8-5.6c-0.9,0-6.8,2.9-9.6,4.7c-3.2,2.1-5.3,3.8-8,6.4c-3.1,3.1-6.6,7.6-8.5,11.1
		l-0.4,0.8l1.7,1.8c2.3,2.3,3.2,3.7,4.1,6.1c0.9,2.5,0.9,3.2-0.5,6.7c-1.2,3.1-2.2,5.6-3.9,10c-1.4,3.6-2.4,5.1-3.8,5.5
		C58.8,7163.3,53.3,7163.4,52.2,7163.1z"/>
</g>
</svg>
