<svg id="Capa_1" data-name="Capa 1" xmlns="http://www.w3.org/2000/svg" width="23.39" height="23.39" viewBox="0 0 23.39 23.39">
  <defs>
    <style>
      .cls-1 {
        fill: #a79545;
      }
    </style>
  </defs>
  <title>iconos Diego</title>
  <path class="cls-1" d="M11.69,0a11.7,11.7,0,1,0,11.7,11.69A11.7,11.7,0,0,0,11.69,0Zm-3,16.8H6.37V9.47H8.66ZM7.46,8.55h0A1.27,1.27,0,0,1,6.07,7.28,1.29,1.29,0,0,1,7.47,6a1.28,1.28,0,1,1,0,2.55ZM17.83,16.8h-2.6V13c0-1-.41-1.67-1.3-1.67a1.32,1.32,0,0,0-1.24.9,1.61,1.61,0,0,0-.06.6v4H10.06s0-6.72,0-7.33h2.57v1.15A2.34,2.34,0,0,1,14.92,9.4c1.63,0,2.91,1,2.91,3.32Z"/>
</svg>
